<svg width="498.55" height="94.17922110031157" viewBox="0 0 370 69.89532004235338" class="looka-1j8o68f"><defs id="SvgjsDefs3481"><linearGradient id="SvgjsLinearGradient3486"><stop id="SvgjsStop3487" stop-color="#616161" offset="0"></stop><stop id="SvgjsStop3488" stop-color="#e6e7e8" offset="0.5"></stop><stop id="SvgjsStop3489" stop-color="#616161" offset="1"></stop></linearGradient><linearGradient id="SvgjsLinearGradient3490"><stop id="SvgjsStop3491" stop-color="#616161" offset="0"></stop><stop id="SvgjsStop3492" stop-color="#e6e7e8" offset="0.5"></stop><stop id="SvgjsStop3493" stop-color="#616161" offset="1"></stop></linearGradient></defs><g id="SvgjsG3482" featurekey="monogramFeature-0" transform="matrix(1.6642138890967257,0,0,1.6642138890967257,-7.189568553296557,-29.954186704031958)" fill="url(#SvgjsLinearGradient3486)"><path d="M25.381 39 l21.001 -21.001 l0 41.999 l-6.9599 0 l0 -25.115 l-14.041 14.041 l-21.061 -21.152 l0 -9.7725 z M45.068 58.6882 l-0.000058594 -37.522 l-18.762 18.761 l-0.92574 0.92574 l-0.927 -0.92442 l-18.823 -18.769 l0 6.0709 l19.751 19.837 l15.349 -15.349 l0 26.969 l4.3375 0 z"></path></g><g id="SvgjsG3483" featurekey="nameFeature-0" transform="matrix(1.985545293282697,0,0,1.985545293282697,84.28162932811821,-16.824557171228136)" fill="url(#SvgjsLinearGradient3490)"><path d="M2.88 39.61492 l4.6392 -4.2956 l14 0 l0 4.6802 l-18.639 0 l0 -0.38461 z M20.646 36.1944 l-12.783 0 l-3.167 2.9319 l15.95 0 l0 -2.9319 z M2.88 12 l18.64 0 l0 4.6802 l-14 0 z M20.646 15.806000000000001 l0 -2.9319 l-15.668 0 l2.9065 2.9319 l12.762 0 z M2.88 28.34 l0 -4.64 l18.639 0 l0 4.64 l-18.639 0 z M3.7541 24.573999999999998 l0 2.8917 l16.891 0 l0 -2.8917 l-16.891 0 z M47.84 20.594 c0.73952 1.695 1.1092 3.4965 1.1092 5.4048 c0 1.9109 -0.36976 3.7124 -1.1093 5.4064 c-0.73952 1.695 -1.7422 3.1819 -3.0053 4.4588 c-1.2658 1.278 -2.7509 2.2859 -4.4588 3.0254 c-1.7081 0.7404 -3.5167 1.1102 -5.426 1.1102 l-9.3201 0 l4.64 -4.68 l4.6802 0 c1.2902 0 2.5009 -0.24215 3.6303 -0.7264 s2.118 -1.1565 2.966 -2.0175 c0.84704 -0.86016 1.5123 -1.8558 1.9965 -2.9852 c0.48424 -1.1303 0.7264 -2.3261 0.7264 -3.591 c0 -1.2631 -0.24215 -2.4607 -0.7264 -3.5901 s-1.1574 -2.125 -2.0175 -2.9852 c-0.861 -0.861 -1.8558 -1.5332 -2.9852 -2.0175 c-1.1294 -0.48516 -2.327 -0.7264 -3.5901 -0.7264 l-4.6802 0 l-4.64 -4.68 l9.3201 0 c1.9091 0 3.7116 0.37062 5.4056 1.1092 c1.695 0.7404 3.1801 1.7491 4.458 3.0262 c1.2771 1.278 2.2859 2.7641 3.0262 4.458 z M47.04 31.0564 c0.68708 -1.5752 1.0358 -3.2762 1.0358 -5.056 s-0.34879 -3.4817 -1.0358 -5.0568 c-0.69232 -1.5848 -1.6486 -2.9939 -2.8436 -4.1896 c-1.1958 -1.1941 -2.6049 -2.1504 -4.1896 -2.8427 c-1.5761 -0.68796 -3.278 -1.0368 -5.056 -1.0368 l-7.223 0 l2.9065 2.9319 l4.3165 0 c1.3794 0 2.7028 0.26836 3.9354 0.79724 c1.2247 0.52448 2.3209 1.2658 3.2579 2.202 c0.9362 0.9362 1.6766 2.0332 2.2028 3.2596 c0.52888 1.2343 0.79724 2.5577 0.79724 3.9345 s-0.26836 2.7002 -0.79724 3.9354 c-0.52536 1.2247 -1.2579 2.32 -2.1775 3.2544 c-0.92224 0.93708 -2.014 1.6801 -3.244 2.2072 c-1.2343 0.52888 -2.5717 0.79724 -3.9747 0.79724 l-4.3165 0 l-2.9065 2.9319 l7.223 0 c1.7798 0 3.4887 -0.34879 5.078 -1.0376 c1.5971 -0.69144 3.0053 -1.646 4.1856 -2.8384 c1.181 -1.1941 2.132 -2.6049 2.8261 -4.1932 z M53.02 12.059999999999999 l4.64 4.6008 l0 18.6 l-4.64 4.68 l0 -27.881 z M56.784800000000004 34.900800000000004 l0 -17.877 l-2.8917 -2.8663 l0 23.66 z M66.37 39.9987109 l-4.6392 0.000039062 l0 -14.04 l18.639 0 l0 4.7204 l-14 0 l0 9.3192 z M62.6042 26.833 l-0.000039062 12.291 l2.8917 0 l0 -9.3192 l13.999 0 l0 -2.9721 l-16.891 0 z M61.730000000000004 11.998999999999999 l18.64 0 l0 4.6802 l-14 0 z M79.49600000000001 15.806000000000001 l0 -2.9327 l-15.668 0 l2.9065 2.9327 l12.762 0 z M84.47999999999999 12.059999999999999 l4.64 4.6008 l0 18.6 l-4.64 4.68 l0 -27.881 z M88.2448 34.900800000000004 l0 -17.877 l-2.8917 -2.8663 l0 23.66 z M111.803 12 l4.6732 0 l0 28.001 l-23.286 -20.923 l0 -7.0779 l18.613 16.76 l0 -16.76 z M115.602 38.0397 l0 -25.166 l-2.9249 0 l0 17.849 l-1.459 -1.3138 l-17.154 -15.446 l0 4.7247 z M142.79 20.594 c0.73952 1.695 1.1092 3.4965 1.1092 5.4048 c0 1.9109 -0.36976 3.7124 -1.1093 5.4064 c-0.73952 1.695 -1.7422 3.1819 -3.0053 4.4588 c-1.2658 1.278 -2.7509 2.2859 -4.4588 3.0254 c-1.7081 0.7404 -3.5167 1.1102 -5.426 1.1102 l-9.3201 0 l4.64 -4.68 l4.6802 0 c1.2902 0 2.5009 -0.24215 3.6303 -0.7264 s2.118 -1.1565 2.966 -2.0175 c0.84704 -0.86016 1.5123 -1.8558 1.9965 -2.9852 c0.48424 -1.1303 0.7264 -2.3261 0.7264 -3.591 c0 -1.2631 -0.24215 -2.4607 -0.7264 -3.5901 s-1.1574 -2.125 -2.0175 -2.9852 c-0.861 -0.861 -1.8558 -1.5332 -2.9852 -2.0175 c-1.1294 -0.48516 -2.327 -0.7264 -3.5901 -0.7264 l-4.6802 0 l-4.64 -4.68 l9.3201 0 c1.9091 0 3.7116 0.37062 5.4056 1.1092 c1.695 0.7404 3.1801 1.7491 4.458 3.0262 c1.2771 1.278 2.2859 2.7641 3.0262 4.458 z M141.99 31.0564 c0.68708 -1.5752 1.0358 -3.2762 1.0358 -5.056 s-0.34879 -3.4817 -1.0358 -5.0568 c-0.69232 -1.5848 -1.6486 -2.9939 -2.8436 -4.1896 c-1.1958 -1.1941 -2.6049 -2.1504 -4.1896 -2.8427 c-1.5761 -0.68796 -3.278 -1.0368 -5.056 -1.0368 l-7.223 0 l2.9065 2.9319 l4.3165 0 c1.3794 0 2.7028 0.26836 3.9354 0.79724 c1.2247 0.52448 2.3209 1.2658 3.2579 2.202 c0.9362 0.9362 1.6766 2.0332 2.2028 3.2596 c0.52888 1.2343 0.79724 2.5577 0.79724 3.9345 s-0.26836 2.7002 -0.79724 3.9354 c-0.52536 1.2247 -1.2579 2.32 -2.1775 3.2544 c-0.92224 0.93708 -2.014 1.6801 -3.244 2.2072 c-1.2343 0.52888 -2.5717 0.79724 -3.9747 0.79724 l-4.3165 0 l-2.9065 2.9319 l7.223 0 c1.7798 0 3.4887 -0.34879 5.078 -1.0376 c1.5971 -0.69144 3.0053 -1.646 4.1856 -2.8384 c1.181 -1.1941 2.132 -2.6049 2.8261 -4.1932 z"></path></g></svg>